Coordinates
version=1
nRows=17
nColumns=24
inDegrees=yes

Units are S.I. units (second, meters, Newtons, ...)
Angles are in degrees.

endheader
time	pelvis_tilt	pelvis_list	pelvis_rotation	pelvis_tx	pelvis_ty	pelvis_tz	hip_flexion_r	hip_adduction_r	hip_rotation_r	knee_angle_r	ankle_angle_r	subtalar_angle_r	mtp_angle_r	hip_flexion_l	hip_adduction_l	hip_rotation_l	knee_angle_l	ankle_angle_l	subtalar_angle_l	mtp_angle_l	lumbar_extension	lumbar_bending	lumbar_rotation
      1.15850000	     -0.61081601	      1.49781577	     -3.19415299	      0.07572379	      1.00900743	      0.29524595	     20.46141687	     -5.70136287	     -7.59229556	    -69.55614772	      1.75814606	    -11.61427471	     -0.34567320	     13.92641759	      2.30822388	     -9.97648244	    -15.57859268	      1.16748603	    -10.80914005	     -0.24036069	    -12.75346002	     -3.50406486	      2.77864580
      1.16266667	     -0.59231289	      1.37370485	     -3.03474073	      0.08074273	      1.00999689	      0.29484491	     20.95449957	     -5.51839925	     -7.73125270	    -69.19225415	      2.10899131	    -11.54408083	     -0.44993223	     13.48339560	      2.26615167	     -9.79621630	    -15.36628821	      1.28745619	    -10.75336137	     -0.27749462	    -12.84554002	     -3.31582196	      2.58454015
      1.16683333	     -0.61396682	      1.26028318	     -2.92815537	      0.08578106	      1.01092226	      0.29459669	     21.48536343	     -5.31643646	     -7.81367133	    -68.75574384	      2.41830946	    -11.42182142	     -0.50752657	     13.07018292	      2.21284438	     -9.67498726	    -15.13574033	      1.39299916	    -10.70420279	     -0.30120214	    -12.87887720	     -3.17529719	      2.48189729
      1.17100000	     -0.63857619	      1.16007376	     -2.84538566	      0.09078109	      1.01180143	      0.29441706	     22.01476202	     -5.11612591	     -7.87738480	    -68.26436707	      2.72940401	    -11.36055401	     -0.53137775	     12.65706578	      2.16416806	     -9.58372301	    -14.88968567	      1.46380893	    -10.67126980	     -0.31246801	    -12.91079324	     -3.05149913	      2.41095241
      1.17516667	     -0.66070184	      1.04040835	     -2.74070891	      0.09581579	      1.01270377	      0.29417232	     22.50261826	     -4.91207336	     -7.97802997	    -67.67903955	      3.00253789	    -11.24020634	     -0.55989055	     12.23558368	      2.10102726	     -9.46807211	    -14.63663413	      1.55442131	    -10.60618779	     -0.32613552	    -12.94188005	     -2.89390094	      2.30825809
      1.17933333	     -0.68113609	      0.91746090	     -2.62412647	      0.10085795	      1.01359302	      0.29389785	     22.96151296	     -4.71632891	     -8.10597284	    -67.01631016	      3.24371702	    -11.13923384	     -0.59177731	     11.80804330	      2.03689874	     -9.34027433	    -14.37065834	      1.64140696	    -10.54668275	     -0.34212442	    -12.97232397	     -2.72704087	      2.18501582
      1.18350000	     -0.61954256	      0.76495810	     -2.42091696	      0.10593344	      1.01463727	      0.29337296	     23.26932321	     -4.55463915	     -8.35702189	    -66.24249215	      3.42265832	    -11.03328546	     -0.66787981	     11.29004227	      1.97371782	     -9.10630620	    -14.09843713	      1.78295614	    -10.48575513	     -0.38071344	    -13.09921543	     -2.49217778	      1.94171247
      1.18766667	     -0.68194631	      0.68397317	     -2.36238834	      0.11097744	      1.01539055	      0.29322822	     23.75543946	     -4.37853519	     -8.42772237	    -65.47386524	      3.64392162	    -10.98869424	     -0.68670115	     10.89061717	      1.93761982	     -9.03693970	    -13.79154990	      1.80037868	    -10.48469154	     -0.39309518	    -13.07373871	     -2.38648434	      1.88231489
      1.19183333	     -0.64179770	      0.52135086	     -2.16949629	      0.11606456	      1.01636528	      0.29274485	     24.03850800	     -4.20320819	     -8.68410336	    -64.55939610	      3.79862005	    -10.90597382	     -0.75325208	     10.39109748	      1.85212564	     -8.82018084	    -13.50707372	      1.91890011	    -10.43172504	     -0.43137802	    -13.17180367	     -2.14141260	      1.68320276
      1.19600000	     -0.71764646	      0.45307164	     -2.12184368	      0.12112310	      1.01703656	      0.29261169	     24.49608880	     -4.04417468	     -8.75653939	    -63.66578571	      3.99301630	    -10.85699514	     -0.76906230	      9.99680421	      1.82620709	     -8.76322696	    -13.17756588	      1.92935793	    -10.43369967	     -0.44287914	    -13.12853042	     -2.03478118	      1.62001666
      1.20016667	     -0.64019454	      0.27590013	     -1.91475927	      0.12620887	      1.01803515	      0.29210023	     24.67851160	     -3.86853808	     -9.04866172	    -62.60039636	      4.09587430	    -10.80475590	     -0.82893752	      9.45299575	      1.72535557	     -8.52715718	    -12.88013141	      2.05315413	    -10.39930831	     -0.47796889	    -13.26901115	     -1.77517112	      1.41872037
      1.20433333	     -0.72480013	      0.22393537	     -1.87003389	      0.13128324	      1.01862891	      0.29199695	     25.09760635	     -3.72948973	     -9.12632378	    -61.58513134	      4.28558745	    -10.76795241	     -0.84475810	      9.06351496	      1.71275370	     -8.47657319	    -12.53746850	      2.04162811	    -10.40673060	     -0.48976361	    -13.20924845	     -1.70154365	      1.34550833
      1.20850000	     -0.64095371	      0.06319227	     -1.66403422	      0.13638281	      1.01957355	      0.29147270	     25.22489312	     -3.57928217	     -9.42752788	    -60.39860801	      4.36853201	    -10.75843017	     -0.90636522	      8.50218835	      1.62840325	     -8.23107975	    -12.21061876	      2.13781841	    -10.40200040	     -0.52569927	    -13.35705638	     -1.44737150	      1.13036428
      1.21266667	     -0.64746429	     -0.03225697	     -1.54415522	      0.14148252	      1.02027609	      0.29116542	     25.46883197	     -3.44845136	     -9.61523900	    -59.20936544	      4.48941490	    -10.72466358	     -0.95974884	      8.02932532	      1.58918430	     -8.08598606	    -11.86716965	      2.17902080	    -10.43022655	     -0.56019827	    -13.39218813	     -1.29388200	      0.97582990
      1.21683333	     -0.74875450	     -0.06265954	     -1.49921157	      0.14658434	      1.02072144	      0.29107469	     25.83148887	     -3.34048291	     -9.70374430	    -58.02012130	      4.65309373	    -10.69012402	     -0.97518295	      7.65566790	      1.59536459	     -8.04785925	    -11.52028243	      2.18045520	    -10.43399234	     -0.57132992	    -13.29960696	     -1.24000973	      0.91699520
      1.22100000	     -0.66382202	     -0.19577421	     -1.29401403	      0.15171435	      1.02155120	      0.29057622	     25.88259718	     -3.22524332	    -10.01276503	    -56.66279137	      4.73129109	    -10.70164894	     -1.04517826	      7.08544154	      1.53101693	     -7.81087329	    -11.17275854	      2.24896030	    -10.43128782	     -0.61344696	    -13.44219847	     -1.01411161	      0.68754398
      1.22516667	     -0.78993901	     -0.21120302	     -1.26654571	      0.15681633	      1.02186344	      0.29054185	     26.22804898	     -3.12270673	    -10.07818661	    -55.36496826	      4.85719345	    -10.66139290	     -1.05969109	      6.73897736	      1.54738832	     -7.78184933	    -10.83249209	      2.28025007	    -10.46631475	     -0.62343117	    -13.32183198	     -0.98024212	      0.63802828
